<?xml version="1.0" encoding="utf-8"?>
<!-- Generator: Adobe Illustrator 22.1.0, SVG Export Plug-In . SVG Version: 6.00 Build 0)  -->
<svg version="1.1" id="Camada_1" xmlns="http://www.w3.org/2000/svg" xmlns:xlink="http://www.w3.org/1999/xlink" x="0px" y="0px"
	 viewBox="0 0 100 100" style="enable-background:new 0 0 100 100;" xml:space="preserve">
<style type="text/css">
	.st0{fill:#4A696F;}
	.st1{fill:#384949;}
	.st2{fill:#FFE470;}
	.st3{fill:#FDBF00;}
	.st4{fill:#F4D7AF;}
	.st5{clip-path:url(#SVGID_2_);fill:#FAECD8;}
	.st6{clip-path:url(#SVGID_2_);fill:#F4D7AF;}
	.st7{fill:#FF9F00;}
</style>
<g>
	<path class="st0" d="M58.8,81.2v5.9c0,4.9-3.9,8.8-8.8,8.8c-4.9,0-8.8-3.9-8.8-8.8v-5.9c0-1.6,1.3-2.9,2.9-2.9h11.7
		C57.5,78.3,58.8,79.6,58.8,81.2L58.8,81.2z M58.8,81.2"/>
	<path class="st1" d="M58.8,81.2v5.9c0,4.9-3.9,8.8-8.8,8.8V78.3h5.9C57.5,78.3,58.8,79.6,58.8,81.2L58.8,81.2z M58.8,81.2"/>
	<path class="st2" d="M50,7.9c-18.4,0-32.2,14.8-32.2,32.2c0,10.4,5,20.2,13.7,26.4c2.4,1.7,3.9,4.7,3.9,8v0.8
		c0,4.9,3.9,8.8,8.8,8.8h11.7c4.9,0,8.8-3.9,8.8-8.8v-0.9c0-3.2,1.7-6.2,4.6-8.4c8.2-6.2,12.9-15.5,12.9-25.8C82.2,22.5,68,8,50,7.9
		L50,7.9z M50,7.9"/>
	<path class="st3" d="M82.2,40.2c0,10.3-4.7,19.6-12.9,25.8c-2.9,2.2-4.6,5.3-4.6,8.4v0.9c0,4.9-3.9,8.8-8.8,8.8H50V7.9
		C68,8,82.2,22.5,82.2,40.2L82.2,40.2z M82.2,40.2"/>
	<path class="st4" d="M97.1,43.1H91c-1.6,0-2.9-1.3-2.9-2.9c0-1.6,1.3-2.9,2.9-2.9h6.1c1.6,0,2.9,1.3,2.9,2.9
		C100,41.8,98.7,43.1,97.1,43.1L97.1,43.1z M97.1,43.1"/>
	<g>
		<defs>
			<rect id="SVGID_1_" x="0" y="4.1" width="100" height="91.8"/>
		</defs>
		<clipPath id="SVGID_2_">
			<use xlink:href="#SVGID_1_"  style="overflow:visible;"/>
		</clipPath>
		<path class="st5" d="M9,43.1H2.9c-1.6,0-2.9-1.3-2.9-2.9c0-1.6,1.3-2.9,2.9-2.9H9c1.6,0,2.9,1.3,2.9,2.9
			C11.9,41.8,10.6,43.1,9,43.1L9,43.1z M9,43.1"/>
		<path class="st6" d="M76.9,13.2c-1.1-1.1-1.1-3,0-4.1L81.1,5c1.1-1.1,3-1.1,4.1,0c1.1,1.1,1.1,3,0,4.1l-4.1,4.1
			C79.9,14.4,78.1,14.4,76.9,13.2L76.9,13.2z M76.9,13.2"/>
		<path class="st5" d="M14.8,75.4c-1.1-1.1-1.1-3,0-4.1l4.1-4.1c1.1-1.1,3-1.1,4.1,0c1.1,1.1,1.1,3,0,4.1l-4.1,4.1
			C17.8,76.5,15.9,76.5,14.8,75.4L14.8,75.4z M14.8,75.4"/>
		<path class="st5" d="M18.9,13.2l-4.1-4.1c-1.1-1.1-1.1-3,0-4.1c1.1-1.1,3-1.1,4.1,0l4.1,4.1c1.1,1.1,1.1,3,0,4.1
			C21.9,14.4,20.1,14.4,18.9,13.2L18.9,13.2z M18.9,13.2"/>
	</g>
	<path class="st4" d="M81.1,75.4l-4.1-4.1c-1.1-1.1-1.1-3,0-4.1c1.1-1.1,3-1.1,4.1,0l4.1,4.1c1.1,1.1,1.1,3,0,4.1
		C84.1,76.5,82.2,76.5,81.1,75.4L81.1,75.4z M81.1,75.4"/>
	<path class="st3" d="M66.3,43.6L50.8,33.3l4.7-9.4c0.6-1.3,0.2-2.8-0.9-3.7c-1.2-0.8-2.8-0.7-3.7,0.4L33.3,38.1
		c-0.6,0.6-0.9,1.5-0.9,2.3c0.1,0.9,0.6,1.6,1.3,2.2l15.5,10.3l-4.7,9.4c-0.6,1.3-0.2,2.8,0.9,3.7c1.2,0.8,2.8,0.7,3.7-0.4
		l17.6-17.6c0.6-0.6,0.9-1.5,0.9-2.3C67.5,44.9,67,44.1,66.3,43.6L66.3,43.6z M66.3,43.6"/>
	<path class="st7" d="M67.6,45.7c0.1,0.9-0.2,1.8-0.9,2.3L50,64.8V21.4l0.9-0.9c1-1.1,2.6-1.2,3.7-0.4c1.2,0.9,1.6,2.4,0.9,3.7
		l-4.7,9.4l15.5,10.3C67,44.1,67.5,44.9,67.6,45.7L67.6,45.7z M67.6,45.7"/>
</g>
</svg>
