<?xml version="1.0" encoding="utf-8"?>
<!-- Generator: Adobe Illustrator 22.1.0, SVG Export Plug-In . SVG Version: 6.00 Build 0)  -->
<svg version="1.1" id="Camada_1" xmlns="http://www.w3.org/2000/svg" xmlns:xlink="http://www.w3.org/1999/xlink" x="0px" y="0px"
	 viewBox="0 0 100 100" style="enable-background:new 0 0 100 100;" xml:space="preserve">
<style type="text/css">
	.st0{fill:#FFDE4C;}
	.st1{fill:#FFCB00;}
	.st2{fill:#FFB100;}
	.st3{fill:#FF5E00;}
	.st4{fill:#FF2800;}
	.st5{fill:#FF8B00;}
	.st6{fill:#E7E7ED;}
	.st7{fill:#DBDBE1;}
	.st8{fill:#34DEF8;}
	.st9{fill:#474747;}
	.st10{fill:#00D4F9;}
	.st11{fill:#333333;}
</style>
<g>
	<path class="st0" d="M40.2,76.6c-0.9,3.4-2.7,6.6-5.3,9.3c-6.1,6-28.6,13.2-31.2,14c-1,0.3-2.1,0-2.9-0.8s-1.1-1.9-0.8-2.9
		c0.8-2.5,8-25,14.1-31c2.6-2.6,5.9-4.5,9.3-5.3l8.4,8.4L40.2,76.6z"/>
	<g>
		<path class="st1" d="M31.8,68.2l8.4,8.4c-0.9,3.4-2.7,6.6-5.3,9.3c-6.1,6-28.6,13.2-31.2,14c-1,0.3-2.1,0-2.9-0.8L31.8,68.2z"/>
		<path class="st1" d="M32.8,71.4l-8.3,8.3c-0.6,0.5-1.3,0.8-2.1,0.8c-0.8,0-1.5-0.3-2.1-0.8v-0.1c-1.1-1.2-1.1-3,0-4.1l8.3-8.3
			c1.1-1.2,2.9-1.2,4,0h0.1C34,68.4,34,70.2,32.8,71.4z"/>
	</g>
	<path class="st2" d="M32.8,67.3c1.2,1.1,1.2,3,0,4.1l-8.3,8.3c-0.6,0.5-1.3,0.8-2.1,0.8c-0.8,0-1.5-0.3-2.1-0.8v-0.1L32.8,67.3
		L32.8,67.3L32.8,67.3z"/>
	<path class="st3" d="M34.1,28.8C13.3,28.8,6.7,46.4,6.2,47c-0.5,0.9-0.4,2,0.1,2.9c0.5,0.9,1.5,1.4,2.5,1.4
		c12,1.1,19.5,1.7,18.9,1.7l10-24.1L34.1,28.8L34.1,28.8z"/>
	<path class="st4" d="M47.1,72.3c0,0.6,1.5,20,1.4,18.7c0,2.2,2.3,3.6,4.3,2.6c0.6-0.5,18.2-7.2,18.2-27.9v-3.6L47.1,72.3z"/>
	<path class="st5" d="M49.4,75.6c-3.1,1.6-6.2,3.1-9.1,4.6c-1.1,0.6-2.5,0.4-3.4-0.5L20.4,63.1c-0.9-0.9-1.1-2.3-0.5-3.4
		c1.5-2.9,3-6,4.6-9.1c0.9-1.8,7.7,2.2,8.7,0.4l16,16C47.2,67.8,51.3,74.6,49.4,75.6z"/>
	<path class="st3" d="M49.4,75.6c-3.1,1.6-6.2,3.1-9.1,4.6c-1.1,0.6-2.5,0.4-3.4-0.5l-8.3-8.3l12.5-12.4l8,8
		C47.2,67.8,51.3,74.6,49.4,75.6z"/>
	<path class="st6" d="M97.6,29.1c-2.6,10.1-7.4,18.3-14.8,25.4c-8.6,8.3-22.4,15.6-33.3,21.1L37,63.1L24.4,50.6
		c5.5-11,12.8-24.8,21.1-33.3C52.6,9.8,60.8,5.1,70.9,2.4l5.9,2.2c0.1,5.1,2.2,9.7,5.5,13.1c3.3,3.3,8,5.4,13.1,5.5L97.6,29.1z"/>
	<path class="st7" d="M97.6,29.1c-2.6,10.1-7.4,18.3-14.8,25.4c-8.6,8.3-22.4,15.6-33.3,21.1L37,63.1l45.4-45.4
		c3.3,3.3,8,5.4,13.1,5.5L97.6,29.1z"/>
	<path class="st8" d="M74.2,25.8c-5.7-5.7-15-5.7-20.7,0c-5.7,5.7-5.7,14.9,0,20.7v0.1c5.7,5.7,15,5.7,20.7,0
		C80,40.8,80,31.5,74.2,25.8z"/>
	<path class="st5" d="M97.6,29.1c-0.5,0-1.8-0.1-2.3-0.1c-6.7-0.1-12.7-2.8-17.1-7.2c-4.4-4.4-7.1-10.4-7.2-17.1
		c0-0.5-0.1-1.8-0.1-2.3c8.3-2.2,17.6-2.7,26.2-2.3c0.8,0,1.5,0.3,2,0.8c0.5,0.5,0.8,1.2,0.8,2C100.3,11.5,99.7,20.8,97.6,29.1z"/>
	<path class="st9" d="M49.3,54.8c-1.1,1.2-3,1.2-4.1,0c-1.2-1.1-1.2-3,0-4.1c1.1-1.2,3-1.2,4.1,0C50.5,51.8,50.5,53.7,49.3,54.8z"/>
	<path class="st3" d="M97.6,29.1c-0.5,0-1.8-0.1-2.3-0.1c-6.7-0.1-12.7-2.8-17.1-7.2L99.1,0.9c0.5,0.5,0.8,1.2,0.8,2
		C100.3,11.5,99.7,20.8,97.6,29.1z"/>
	<path class="st10" d="M74.2,46.5c-5.7,5.7-15,5.7-20.7,0v-0.1l20.7-20.7C80,31.5,80,40.8,74.2,46.5z"/>
	<path class="st11" d="M49.3,54.8c-1.1,1.2-3,1.2-4.1,0l4.1-4.1C50.5,51.8,50.5,53.7,49.3,54.8z"/>
</g>
</svg>
