<?xml version="1.0" encoding="utf-8"?>
<!-- Generator: Adobe Illustrator 22.1.0, SVG Export Plug-In . SVG Version: 6.00 Build 0)  -->
<svg version="1.1" id="Camada_1" xmlns="http://www.w3.org/2000/svg" xmlns:xlink="http://www.w3.org/1999/xlink" x="0px" y="0px"
	 viewBox="0 0 300 300" style="enable-background:new 0 0 300 300;" xml:space="preserve">
<style type="text/css">
	.st0{clip-path:url(#SVGID_2_);fill:#00DC7F;}
	.st1{clip-path:url(#SVGID_2_);fill:#00A861;}
	.st2{fill:#FFFFFF;}
	.st3{fill:#E1EBF0;}
	.st4{fill:#B3D1D7;}
	.st5{fill:#6EA3A8;}
</style>
<g>
	<g>
		<defs>
			<rect id="SVGID_1_" x="22.1" width="257.1" height="300.7"/>
		</defs>
		<clipPath id="SVGID_2_">
			<use xlink:href="#SVGID_1_"  style="overflow:visible;"/>
		</clipPath>
		<path class="st0" d="M265.2,200.8c-8.1,21.9-20.3,40.9-36.3,56.6c-18.2,17.8-42.1,32-71,42.1c-0.9,0.3-1.9,0.6-2.9,0.8
			c-1.3,0.3-2.6,0.4-4,0.4h-0.3c-1.4,0-2.8-0.1-4.2-0.4c-1-0.2-2-0.5-2.9-0.8c-28.9-10.1-52.8-24.2-71.1-42
			c-16-15.7-28.3-34.7-36.3-56.6C21.5,161,22.3,117.1,23,81.9l0-0.5c0.1-2.9,0.2-6,0.3-9.3c0.2-16.6,13.4-30.3,30-31.2
			c34.6-1.9,61.3-13.2,84.2-35.5l0.2-0.2c3.8-3.5,8.6-5.2,13.3-5.1c4.6,0.1,9.2,1.8,12.8,5.1l0.2,0.2c22.9,22.3,49.6,33.5,84.2,35.5
			c16.6,0.9,29.8,14.6,30,31.2c0,3.4,0.1,6.5,0.3,9.3l0,0.2C279.1,116.9,279.9,160.8,265.2,200.8L265.2,200.8z M265.2,200.8"/>
		<path class="st1" d="M265.2,200.8c-8.1,21.9-20.3,40.9-36.3,56.6c-18.2,17.8-42.1,32-71,42.1c-0.9,0.3-1.9,0.6-2.9,0.8
			c-1.3,0.3-2.6,0.4-4,0.4V0c4.6,0.1,9.2,1.8,12.8,5.1l0.2,0.2c22.9,22.3,49.6,33.5,84.2,35.5c16.6,0.9,29.8,14.6,30,31.2
			c0,3.4,0.1,6.5,0.3,9.3l0,0.2C279.1,116.9,279.9,160.8,265.2,200.8L265.2,200.8z M265.2,200.8"/>
	</g>
	<path class="st2" d="M225.6,150.3c0,41.2-33.5,74.8-74.7,74.9h-0.3c-41.3,0-74.9-33.6-74.9-74.9c0-41.3,33.6-74.9,74.9-74.9h0.3
		C192.2,75.5,225.6,109.1,225.6,150.3L225.6,150.3z M225.6,150.3"/>
	<path class="st3" d="M225.6,150.3c0,41.2-33.5,74.8-74.7,74.9V75.4C192.2,75.5,225.6,109.1,225.6,150.3L225.6,150.3z M225.6,150.3"
		/>
	<path class="st4" d="M184.7,139.5L151,173.3l-7.3,7.3c-1.7,1.7-4,2.6-6.2,2.6c-2.3,0-4.5-0.9-6.2-2.6l-15.7-15.7
		c-3.4-3.4-3.4-9,0-12.5c3.4-3.4,9-3.4,12.5,0l9.4,9.4l34.8-34.8c3.4-3.4,9-3.4,12.5,0C188.2,130.5,188.2,136.1,184.7,139.5
		L184.7,139.5z M184.7,139.5"/>
	<path class="st5" d="M184.7,139.5L151,173.3v-25l21.3-21.3c3.4-3.4,9-3.4,12.5,0C188.2,130.5,188.2,136.1,184.7,139.5L184.7,139.5z
		 M184.7,139.5"/>
</g>
</svg>
