<?xml version="1.0" encoding="utf-8"?>
<!-- Generator: Adobe Illustrator 22.1.0, SVG Export Plug-In . SVG Version: 6.00 Build 0)  -->
<svg version="1.1" id="Camada_1" xmlns="http://www.w3.org/2000/svg" xmlns:xlink="http://www.w3.org/1999/xlink" x="0px" y="0px"
	 viewBox="0 0 255 120" style="enable-background:new 0 0 255 120;" xml:space="preserve">
<style type="text/css">
	.st0{fill:#FFFFFF;}
	.st1{fill:none;}
</style>
<g>
	<path class="st0" d="M16.7,82.8c1.9,11,11.4,19.5,23,19.5c7.2,0,13.6-3.3,17.9-8.4l15.1,5.6c-6.9,11-19.1,18.4-33,18.4
		c-20.2,0-36.8-15.4-38.7-35c-0.1-1.3-0.2-2.6-0.2-3.9c0-2,0.2-4,0.5-6C1.6,71,2,69.1,2.6,67.2c1-3.2,2.4-6.1,4.1-8.9
		c6.9-11,19.1-18.3,33-18.3c17.4,0,32.2,11.5,37.1,27.2c1.2,3.7,1.8,7.6,1.8,11.7c0,1.3-0.1,2.6-0.2,3.9H16.7z M19.5,67.2h40.4
		c-4-7-11.6-11.7-20.2-11.7c-7.2,0-13.6,3.3-17.9,8.4C21,64.9,20.2,66.1,19.5,67.2z"/>
	<path class="st0" d="M74.4,40.2h22.1l27.7,27.6V1.4h15.6V118h-15.6V90.4L96.5,118H74.4l39-38.9L74.4,40.2z"/>
	<path class="st0" d="M149.9,118V1.4h15.6V118H149.9z"/>
	<path class="st0" d="M251.1,63.4c-2-4.7-4.9-9-8.5-12.6c-3.6-3.6-7.9-6.5-12.6-8.5c-4.9-2.1-10.1-3.1-15.5-3.1
		c-5.4,0-10.6,1-15.5,3.1c-4.7,2-9,4.9-12.6,8.5c-3.6,3.6-6.5,7.9-8.5,12.6c-2.1,4.9-3.1,10.1-3.1,15.5c0,5.4,1,10.6,3.1,15.5
		c2,4.7,4.9,9,8.5,12.6s7.9,6.5,12.6,8.5c4.9,2.1,10.1,3.1,15.5,3.1c5.4,0,10.6-1,15.5-3.1c4.7-2,9-4.9,12.6-8.5
		c3.6-3.6,6.5-7.9,8.5-12.6c2.1-4.9,3.1-10.1,3.1-15.5C254.2,73.5,253.1,68.3,251.1,63.4z M214.5,101.5c-12.4,0-22.6-10.1-22.6-22.6
		c0-12.4,10.1-22.6,22.6-22.6c12.4,0,22.6,10.1,22.6,22.6C237,91.3,226.9,101.5,214.5,101.5z"/>
	<g>
		<path class="st1" d="M225,75.5c-0.3,0-0.6,0-0.9,0.1l0,0c-0.8,0.2-1.4,0.8-1.7,1.5c-0.3,0.7-0.4,1.5-0.2,2.2
			c0.5,1.5,2.2,2.4,3.7,1.9c0.8-0.2,1.4-0.8,1.7-1.5c0.3-0.7,0.4-1.5,0.2-2.2C227.4,76.2,226.3,75.5,225,75.5z"/>
		<path class="st0" d="M206,84.8c-3.8,0.7-6.9,2.7-9.1,5.5c0.8,1.2,1.7,2.4,2.8,3.4c1.5-2.4,4-4.2,7.1-4.8
			c5.8-1.1,11.4,2.7,12.5,8.4c0.1,0.6,0.2,1.3,0.2,1.9c1.5-0.4,2.9-0.9,4.2-1.5c0-0.4-0.1-0.8-0.2-1.2
			C221.9,88.6,214.1,83.3,206,84.8z"/>
		<path class="st0" d="M229.7,76.9c-0.8-2.5-3.6-3.9-6.1-3.1c-1.2,0.4-2.3,1.3-2.9,2.4c-0.6,1.1-0.7,2.4-0.3,3.7
			c0.7,2,2.6,3.3,4.6,3.3c0.5,0,1-0.1,1.5-0.2c1.2-0.4,2.3-1.3,2.9-2.4C230,79.4,230.1,78.1,229.7,76.9z M227.7,79.7
			c-0.4,0.7-1,1.2-1.7,1.5c-1.5,0.5-3.2-0.3-3.7-1.9c-0.2-0.7-0.2-1.5,0.2-2.2c0.4-0.7,1-1.2,1.7-1.5l0,0c0.3-0.1,0.6-0.1,0.9-0.1
			c1.2,0,2.4,0.8,2.8,2C228.1,78.2,228,79,227.7,79.7z"/>
	</g>
</g>
</svg>
